<svg width="817" height="268" viewBox="0 0 817 268" fill="none" xmlns="http://www.w3.org/2000/svg">
<g clip-path="url(#clip0_2073_308)">
<path d="M540 54.0003C542.562 56.2339 543.802 57.7624 544.344 61.1488C544.533 65.8886 544.097 69.2152 541 73.0003C536.952 75.6987 533.753 75.6573 529 75.0003C525.247 73.1578 523.497 71.9949 521.625 68.2503C521.316 67.1366 521.316 67.1366 521 66.0003C516.88 65.5964 514.73 65.4742 511.312 67.9378C508.459 71.7163 506.713 75.6085 505 80.0003C506.083 80.3677 506.083 80.3677 507.187 80.7425C515.802 84.5951 522.48 92.6749 525.926 101.325C530.542 114.562 529.999 127.188 524.375 140.063C517.317 153.132 505.552 160.164 491.93 164.688C480.086 167.93 468.095 166.287 456.523 162.973C453.323 162.09 450.304 161.324 447 161C443.584 163.096 441.246 165.149 440 169C439.548 172.538 439.743 174.474 441.312 177.688C451.378 186.349 471.279 184.658 483.867 185.426C521.475 187.787 521.475 187.787 533 199C538.65 206.062 540.38 213.554 539.875 222.5C538.416 234.639 532.122 244.125 523 252C502.606 266.661 476.517 269.47 452.25 265.813C438.927 263.599 428.16 259.349 418.625 249.563C415.083 243.977 413.284 238.681 414 232C415.47 225.444 418.83 220.267 424 216C427.563 213.956 431.157 212.151 434.891 210.446C438.069 209.064 438.069 209.064 441 207C440.022 206.598 440.022 206.598 439.023 206.188C432.548 203.284 428.525 200.217 425 194C422.988 187.964 422.845 180.592 425.562 174.75C430.213 166.912 436.237 161.648 444 157C443.492 156.588 442.984 156.175 442.461 155.75C432.501 147.395 426.249 137.945 424.258 124.946C423.159 112.39 426.105 100.771 433.687 90.6253C440.704 82.5313 448.819 78.0152 459 75.0003C459.681 74.7747 460.361 74.5492 461.062 74.3167C474.579 70.4889 488.886 72.9983 502 77.0003C502.111 76.2759 502.222 75.5514 502.336 74.805C504.145 67.1646 509.728 59.6551 516 55.0003C524.297 50.4906 531.435 49.3137 540 54.0003ZM459.5 84.6995C452.987 94.6899 451.605 106.451 451.625 118.125C451.627 119.125 451.628 120.125 451.63 121.155C451.821 132.844 453.441 147.216 461.926 155.993C467.856 161.392 471.999 162.376 479.992 162.27C486.012 161.73 489.345 159.072 493.187 154.563C502.656 141.07 502.803 120.303 500.667 104.547C499.83 100.223 498.547 96.1173 497 92.0003C496.7 91.1843 496.399 90.3684 496.09 89.5277C493.912 84.4835 490.628 80.9501 486 78.0003C475.735 74.1068 466.399 75.9646 459.5 84.6995ZM443.488 211.301C437.136 218.553 435.63 226.029 435.727 235.422C436.305 242.995 439.768 248.709 444.887 254.211C448.797 257.522 453.206 259.309 458 261C458.696 261.247 459.392 261.493 460.109 261.746C475.001 265.931 492.525 263.043 506.125 256.188C513.575 251.72 518.731 245.479 521 237C521.655 231.431 522.357 225.32 519.25 220.375C511.564 212.262 501.043 211.6 490.383 210.832C488.793 210.706 488.793 210.706 487.17 210.576C483.822 210.312 480.474 210.062 477.125 209.813C474.857 209.635 472.588 209.456 470.32 209.276C466.178 208.952 462.035 208.629 457.891 208.32C457.065 208.258 456.239 208.196 455.387 208.132C448.887 207.741 448.887 207.741 443.488 211.301Z" fill="#D4AF6A"/>
<path d="M639.25 84.2504C647.828 92.8284 652.632 103.16 655 115C655 118.96 655 122.92 655 127C627.28 127 599.56 127 571 127C574.004 155.92 574.004 155.92 590.961 177.528C602.899 186.094 616.59 186.712 630.777 184.379C648.193 179.891 664.994 169.432 679 158.375C709.239 134.538 745.041 112.588 785 116C796.418 117.469 807.347 120.511 814.777 129.821C816.883 133.575 816.961 136.857 816 141C813.57 145.954 810.615 148.274 806 151C805.553 150.397 805.105 149.794 804.645 149.172C804.04 148.373 803.435 147.574 802.812 146.75C802.221 145.961 801.629 145.173 801.02 144.36C793.275 135.312 781.508 132.014 770 131C740.625 128.954 713.523 141.391 690 158C688.694 158.916 687.388 159.831 686.082 160.746C680.262 164.837 674.452 168.941 668.695 173.121C655.983 182.309 642.874 190.74 628 196C627.143 196.319 626.286 196.637 625.402 196.965C608.624 202.204 589.707 200.193 574.082 192.579C571.596 191.179 569.305 189.68 567 188C565.977 187.268 565.977 187.268 564.934 186.52C552.417 176.6 546.087 161.993 543.625 146.563C541.717 129.048 544.571 110.773 555.237 96.3251C576.329 70.1064 611.743 65.2067 639.25 84.2504ZM581.309 87.1566C574.212 98.1131 572 110.155 572 123C590.48 123 608.96 123 628 123C631.293 116.415 628.227 103.742 626.312 97.0004C623.749 89.5792 619.941 82.1321 613 78.0004C601.107 73.8016 589.199 77.0972 581.309 87.1566Z" fill="#D4AF6A"/>
<path d="M384 81.9998C392.338 89.4998 395.66 98.0711 397 109C397.253 113.783 397.319 118.555 397.335 123.344C397.344 125.699 397.364 128.053 397.388 130.408C397.444 136.246 397.48 142.083 397.516 147.921C397.547 152.88 397.586 157.838 397.636 162.797C397.656 165.11 397.664 167.424 397.672 169.738C397.685 171.158 397.699 172.578 397.713 173.997C397.724 175.85 397.724 175.85 397.735 177.739C397.995 180.941 398.547 183.15 400 186C402.344 187.778 403.561 188.022 406.5 187.875C409.491 186.828 410.939 185.367 413 183C414.485 183.495 414.485 183.495 416 184C414.651 188.132 412.956 190.347 409.687 193.187C408.928 193.861 408.169 194.536 407.387 195.23C400.657 200.22 393.006 199.68 385 199C379.06 197.418 375.427 194.092 372 189C370.818 186.359 369.903 183.757 369 181C368.622 181.496 368.245 181.992 367.855 182.504C361.06 190.89 351.869 197.478 341 199C327.724 200.055 315.781 200.032 305.062 191.25C299.711 186.118 296.475 180.206 295.797 172.773C295.587 162.039 298.064 155.272 305.355 147.324C312.851 140.737 321.305 137.96 330.687 135C351.814 129.941 351.814 129.941 367.254 116.967C368.543 113.567 368.551 110.348 368.437 106.75C368.424 106.007 368.41 105.264 368.395 104.499C368.147 97.0453 367.301 89.6169 362.687 83.4998C357.768 78.9235 352.718 76.9998 346 76.9998C338.254 77.7141 331.7 79.2994 326.062 84.9373C324.689 87.6037 324.494 89.0341 325 91.9998C326.892 94.6361 326.892 94.6361 329 96.9998C330.206 100.619 330.323 103.192 330 107C327.748 111.337 325.561 114.134 321 116C315.374 116.536 311.839 116.189 307 113C303.643 109.824 302.196 106.907 301.844 102.242C302.322 95.3768 305.645 89.2318 310.703 84.66C330.993 69.9948 363.005 67.1185 384 81.9998ZM364.586 125.668C359.898 129.229 354.892 131.726 349.625 134.312C339.266 139.578 329.967 144.987 325 156C322.586 163.672 322.908 172.892 326.59 180.058C329.735 184.388 333.959 187.319 339 189C346.7 189.723 353.812 188.965 360.234 184.418C366.572 179.135 366.572 179.135 369.261 171.581C369.348 168.501 369.337 165.436 369.293 162.355C369.287 160.668 369.287 160.668 369.28 158.946C369.263 155.36 369.226 151.774 369.187 148.187C369.172 145.753 369.159 143.319 369.146 140.885C369.113 134.923 369.063 128.961 369 123C367.205 123 365.939 124.587 364.586 125.668Z" fill="#D4AF6A"/>
<path d="M210 1.00012C210.002 1.93772 210.005 2.87533 210.007 3.84134C210.066 26.651 210.142 49.4605 210.236 72.27C210.281 83.3004 210.32 94.3309 210.346 105.361C210.369 114.975 210.403 124.589 210.449 134.203C210.473 139.293 210.491 144.384 210.498 149.475C210.504 154.267 210.524 159.058 210.554 163.85C210.563 165.608 210.567 167.367 210.565 169.125C210.563 171.527 210.58 173.929 210.601 176.331C210.596 177.026 210.592 177.72 210.587 178.436C210.667 183.971 212.061 188.061 216 192C218.197 192.677 218.197 192.677 220.625 193.125C221.442 193.293 222.26 193.46 223.102 193.633C223.728 193.754 224.355 193.875 225 194C225 194.99 225 195.98 225 197C205.86 197 186.72 197 167 197C167 196.01 167 195.02 167 194C167.603 193.902 168.207 193.804 168.828 193.703C173.692 192.793 176.891 192.146 180 188C186.71 174.581 182.071 149.756 181.965 134.655C181.944 131.451 181.925 128.247 181.906 125.043C181.862 117.491 181.812 109.94 181.758 102.388C181.703 94.6136 181.659 86.8392 181.62 79.0646C181.586 72.355 181.545 65.6455 181.498 58.936C181.47 54.9427 181.445 50.9494 181.427 46.9561C181.411 43.2154 181.384 39.4749 181.351 35.7344C181.335 33.7114 181.329 31.6884 181.323 29.6654C181.311 28.459 181.298 27.2525 181.285 26.0095C181.278 24.9635 181.272 23.9174 181.265 22.8396C180.986 19.8527 180.325 17.6827 179 15.0001C175.739 12.5846 171.948 12.4557 168 12.0001C167.67 11.0101 167.34 10.0201 167 9.00012C167.981 8.79649 167.981 8.79649 168.981 8.58874C170.929 8.18403 172.877 7.77906 174.825 7.3739C177.031 6.91519 179.237 6.45702 181.443 5.99939C186.145 5.02176 190.847 4.04415 195.535 3.00012C196.74 2.732 197.946 2.46387 199.188 2.18762C200.212 1.9543 201.237 1.72098 202.293 1.48059C204.932 1.01222 207.328 0.965697 210 1.00012Z" fill="#D4AF6A"/>
<path d="M273 1.00048C273.002 1.932 273.005 2.86353 273.007 3.82328C273.066 26.4914 273.142 49.1594 273.236 71.8273C273.281 82.7894 273.32 93.7515 273.346 104.714C273.369 114.268 273.403 123.823 273.449 133.378C273.473 138.437 273.491 143.496 273.498 148.555C273.504 153.318 273.524 158.081 273.554 162.844C273.563 164.59 273.567 166.337 273.565 168.084C273.563 170.473 273.58 172.861 273.601 175.249C273.596 175.937 273.592 176.625 273.587 177.333C273.659 182.302 274.717 185.669 277 190C280.854 192.57 284.431 193.457 289 194C289 194.99 289 195.98 289 197C269.53 197 250.06 197 230 197C230 196.01 230 195.02 230 194C230.603 193.891 231.207 193.781 231.828 193.668C232.627 193.51 233.427 193.351 234.25 193.188C235.039 193.037 235.828 192.886 236.641 192.731C239.371 191.885 240.884 190.923 243 189C245.979 181.053 245.286 171.727 245.259 163.372C245.262 161.933 245.265 160.495 245.269 159.056C245.278 155.18 245.275 151.304 245.269 147.428C245.264 143.35 245.268 139.272 245.271 135.194C245.275 128.347 245.27 121.5 245.261 114.652C245.25 106.766 245.253 98.8803 245.264 90.9942C245.274 84.1939 245.275 77.3935 245.27 70.5931C245.266 66.5446 245.266 62.4962 245.273 58.4477C245.278 54.6375 245.274 50.8273 245.263 47.0171C245.259 44.9741 245.265 42.931 245.271 40.888C245.853 27.3723 245.853 27.3723 241.566 15.1797C238.974 13.2278 236.102 13.1134 232.961 12.6255C232.314 12.4192 231.667 12.213 231 12.0005C230.67 11.0105 230.34 10.0205 230 9.00048C237.902 7.22332 245.823 5.53727 253.75 3.87548C254.402 3.73642 255.055 3.59736 255.727 3.45409C257.645 3.04549 259.565 2.64399 261.484 2.24266C262.616 2.00403 263.747 1.76539 264.913 1.51952C267.697 1.05143 270.189 0.960957 273 1.00048Z" fill="#D4AF6A"/>
<path d="M67.5417 76.3087C73.2796 78.0797 77.7464 78.4179 83.4375 75.9371C83.9531 75.6278 84.4688 75.3184 85 74.9996C85.9782 87.3488 86.1174 99.6167 86 112C85.01 112 84.02 112 83 112C82.6365 111.021 82.273 110.043 81.8984 109.035C77.1123 96.4306 71.8359 86.1972 59.8125 79.1246C51.5709 76.6927 43.1282 76.0051 35 78.9996C30.0951 81.7351 26.5335 84.9327 24 89.9996C23.2313 99.5463 23.2313 99.5463 27 108C32.1125 112.472 37.4684 115.397 43.75 117.875C44.5613 118.207 45.3726 118.539 46.2085 118.882C50.5759 120.663 54.9676 122.378 59.3672 124.078C76.2587 130.633 76.2587 130.633 83 136C83.8869 136.577 84.7738 137.155 85.6875 137.75C91.5793 143.482 95.0846 150.617 95.2927 158.801C95.3887 169.777 93.8713 177.912 86.0273 186.121C73.3705 197.851 59.6054 199.94 42.9141 199.472C36.2827 199.091 30.1242 197.59 23.7515 195.797C17.9284 194.161 12.0444 192.646 6 194C3.75402 195.443 3.75402 195.443 2 197C-0.15457 194.845 0.739734 189.928 0.683594 186.933C0.662813 186.025 0.642032 185.116 0.620621 184.18C0.555023 181.266 0.496193 178.351 0.4375 175.437C0.394324 173.466 0.35071 171.496 0.306641 169.525C0.199332 164.683 0.0980933 159.842 0 155C1.32 155 2.64 155 4 155C4.21914 155.738 4.43828 156.477 4.66406 157.238C9.06348 171.312 15.5181 183.2 28.5625 191C37.5866 195.48 47.5387 196.414 57.25 193.75C62.8319 191.851 67.2414 189.741 70.375 184.562C72.8829 178.946 72.7546 173.013 72 167C68.3346 158.6 59.3331 154.321 51.1875 151.125C50.3736 150.792 49.5597 150.46 48.7212 150.117C46.1515 149.068 43.5763 148.033 41 147C9.47994 134.303 9.47994 134.303 3 120.375C0.550679 112.438 0.661142 101.867 3.76562 94.1207C9.5409 84.1968 17.9826 78.0126 28.7266 74.5778C41.8233 71.2473 54.7913 72.2653 67.5417 76.3087Z" fill="#D4AF6A"/>
<path d="M146 74.0003C146.008 75.3105 146.016 76.6207 146.025 77.9707C146.102 90.3298 146.19 102.689 146.288 115.048C146.337 121.401 146.384 127.755 146.422 134.109C146.459 140.243 146.505 146.376 146.558 152.51C146.577 154.848 146.592 157.186 146.603 159.524C146.62 162.803 146.649 166.082 146.681 169.362C146.683 170.324 146.685 171.286 146.688 172.278C146.766 178.607 146.983 184.934 150.562 190.375C154.111 192.741 157.834 193.324 162 194C162 194.99 162 195.98 162 197C142.86 197 123.72 197 104 197C104 196.01 104 195.02 104 194C104.687 193.83 105.374 193.66 106.082 193.485C106.983 193.242 107.884 193 108.812 192.75C109.706 192.518 110.599 192.286 111.52 192.047C114.429 190.819 115.4 189.686 117 187C118.261 183.216 118.156 179.668 118.161 175.724C118.166 174.88 118.171 174.036 118.176 173.166C118.191 170.369 118.198 167.571 118.203 164.774C118.209 162.827 118.215 160.879 118.22 158.932C118.231 154.845 118.237 150.758 118.24 146.671C118.246 141.449 118.27 136.227 118.298 131.005C118.317 126.98 118.322 122.955 118.324 118.929C118.327 117.005 118.335 115.081 118.348 113.157C118.365 110.456 118.363 107.754 118.356 105.053C118.366 104.267 118.375 103.481 118.384 102.671C118.344 97.2485 117.691 91.8017 115 87.0003C111.62 84.8654 107.838 84.0336 104 83.0003C104 82.3403 104 81.6803 104 81.0003C108.855 79.9946 113.711 78.998 118.569 78.0096C120.219 77.6725 121.869 77.333 123.518 76.991C125.898 76.4981 128.279 76.014 130.66 75.5316C131.39 75.3784 132.119 75.2253 132.871 75.0676C133.571 74.9274 134.271 74.7873 134.992 74.6429C135.599 74.5185 136.205 74.3942 136.829 74.2661C139.89 73.8913 142.92 73.9623 146 74.0003Z" fill="#D4AF6A"/>
<path d="M138.938 23.7145C143.579 26.0453 146.354 29.0426 148 33.9996C148.795 38.631 148.523 42.5966 146.375 46.8121C143.204 51.068 140.017 53.3274 135 54.9996C129.017 55.5862 124.898 54.3108 120 50.9996C115.519 46.1741 114.634 43.0465 114.727 36.6051C115.17 32.379 116.367 30.3747 119 26.9996C125.335 22.2772 131.49 20.9667 138.938 23.7145Z" fill="#D4AF6A"/>
</g>
<defs>
<clipPath id="clip0_2073_308">
<rect width="817" height="268" fill="white"/>
</clipPath>
</defs>
</svg>
